Coordinates
version=1
nRows=17
nColumns=24
inDegrees=yes

Units are S.I. units (second, meters, Newtons, ...)
Angles are in degrees.

endheader
time	pelvis_tilt	pelvis_list	pelvis_rotation	pelvis_tx	pelvis_ty	pelvis_tz	hip_flexion_r	hip_adduction_r	hip_rotation_r	knee_angle_r	ankle_angle_r	subtalar_angle_r	mtp_angle_r	hip_flexion_l	hip_adduction_l	hip_rotation_l	knee_angle_l	ankle_angle_l	subtalar_angle_l	mtp_angle_l	lumbar_extension	lumbar_bending	lumbar_rotation
      5.10000000	     -9.69153338	     -1.77307946	      7.24564595	     -1.25650020	     -0.03199306	      2.03722848	     33.80989574	     -0.64435453	    -17.54042710	     -7.34359203	     -1.35112822	      6.41614708	     19.84064174	     -3.86374287	      0.79583574	     -5.49427171	    -14.58246590	     11.97290813	      5.94951526	     12.35936569	      3.96050600	      0.74278376	     -9.78609343
      5.11000000	     -9.61708055	     -1.99693900	      7.49234986	     -1.24284479	     -0.03353231	      2.03790066	     33.94837793	     -0.63384498	    -18.05171685	     -8.81013500	     -1.47583127	      5.71786471	     19.83194775	     -4.06734915	      0.16184996	     -5.27570343	    -15.94802347	     11.79198944	      6.87730886	     12.49865808	      4.09297735	      0.97444495	    -10.06336019
      5.12000000	     -9.57294472	     -2.29679110	      7.65169220	     -1.22891737	     -0.03501126	      2.03883654	     34.05249234	     -0.46314682	    -18.24102921	    -10.31152301	     -2.11783259	      4.44499076	     19.21517814	     -4.16793824	     -0.58130600	     -5.18787537	    -17.42962971	     11.43155490	      7.89097773	     12.78585747	      4.30163381	      1.27476844	    -10.24749542
      5.13000000	     -9.51567014	     -2.67311678	      7.69714461	     -1.21493409	     -0.03621773	      2.04007334	     34.11391242	     -0.09548084	    -17.93326822	    -11.91349218	     -2.41798713	      3.04573365	     12.58347901	     -4.19693891	     -1.42478044	     -5.23646493	    -18.96882461	     10.50025918	      8.71447113	     14.56760638	      4.50111419	      1.65679816	    -10.40342061
      5.14000000	     -9.52359010	     -3.25223397	      7.60637642	     -1.20083449	     -0.03717460	      2.04151700	     34.17078236	      0.56863290	    -17.55615431	    -13.24969826	     -3.29217720	      1.55964983	      6.68085627	     -4.01075107	     -2.49279506	     -5.46582174	    -20.72264633	      9.40111054	      9.54068799	     16.09150208	      4.80805393	      2.25946746	    -10.42847315
      5.15000000	     -9.60869065	     -3.97575281	      7.40205217	     -1.18671908	     -0.03780027	      2.04309932	     34.29735718	      1.43655177	    -17.13831140	    -14.42756861	     -4.49403569	      0.14203662	      2.03319406	     -3.58528470	     -3.71871030	     -5.85082254	    -22.66519669	      7.85890611	     10.23127078	     18.14667679	      5.20976057	      3.02357221	    -10.39329192
      5.16000000	     -9.72423138	     -4.77720937	      7.12830173	     -1.17257758	     -0.03808669	      2.04469286	     34.47415604	      2.40146234	    -16.81806210	    -15.56000224	     -5.89087435	     -1.11166331	     -0.04390366	     -2.96156394	     -5.03988982	     -6.36667307	    -24.81960077	      5.88893744	     10.78386418	     20.32319089	      5.64467240	      3.89084938	    -10.32264946
      5.17000000	     -9.84783620	     -5.53939924	      6.80532777	     -1.15838610	     -0.03810266	      2.04629972	     34.67535183	      3.35529311	    -16.53158180	    -16.74570334	     -7.20638409	     -2.27714138	     -0.09301035	     -2.18111051	     -6.32873870	     -6.95271883	    -27.13315231	      3.31676167	     11.03717979	     22.93377912	      6.08386599	      4.73012916	    -10.26537802
      5.18000000	     -9.95600801	     -6.20942387	      6.49197368	     -1.14415441	     -0.03793786	      2.04792072	     34.80963813	      4.24127727	    -16.29591302	    -17.92199702	     -8.28925816	     -3.44300166	      1.64575312	     -1.26111095	     -7.53855384	     -7.52536586	    -29.55827632	      0.00279924	     10.89282241	     26.65399645	      6.49359837	      5.47171018	    -10.23961565
      5.19000000	    -10.04540321	     -6.81300694	      6.17734503	     -1.12993394	     -0.03769478	      2.04961197	     34.80485447	      5.11481415	    -16.06799046	    -18.97546192	     -8.98282554	     -4.60392783	      4.26595483	     -0.19265126	     -8.69779208	     -8.03901187	    -32.11741777	     -3.85197290	     10.38929574	     30.76212079	      6.86993092	      6.13680770	    -10.22939821
      5.20000000	    -10.14192305	     -7.45424862	      5.86648653	     -1.11578676	     -0.03743150	      2.05140840	     34.64057087	      6.09176308	    -15.80425657	    -19.79556222	     -9.18022391	     -5.68416497	      6.45627616	      1.07126063	     -9.90649600	     -8.37432188	    -34.82230417	     -8.06941189	      9.58627422	     34.89377182	      7.24720880	      6.82468072	    -10.22409639
      5.21000000	    -10.23854877	     -8.16939246	      5.55181823	     -1.10200122	     -0.03722545	      2.05330144	     34.34594148	      7.20142079	    -15.50460067	    -20.39508502	     -8.95919874	     -6.64807609	      7.65926199	      2.54118549	    -11.18406441	     -8.50182423	    -37.69696210	    -12.40126091	      8.40405342	     38.88666914	      7.57521760	      7.57637871	    -10.25465765
      5.22000000	    -10.40137390	     -8.98564994	      5.20538235	     -1.08847606	     -0.03710576	      2.05525826	     33.98679544	      8.46121762	    -15.15310063	    -20.75232906	     -8.42845703	     -7.43474118	      7.83408195	      4.23379153	    -12.51760663	     -8.34969306	    -40.67572346	    -16.59306633	      6.94872690	     42.30473172	      7.94734839	      8.42448624	    -10.25565412
      5.23000000	    -10.64832169	     -9.93434717	      4.89569071	     -1.07530396	     -0.03712901	      2.05712149	     33.62843183	      9.81074985	    -14.99460847	    -20.89903199	     -7.79257397	     -8.03994616	      7.48607847	      6.19844717	    -13.91461571	     -7.85825477	    -43.80681623	    -20.15775084	      5.41579418	     44.26020953	      8.38372697	      9.39958750	    -10.24106114
      5.24000000	    -10.76155225	    -10.73434545	      4.56493342	     -1.06241768	     -0.03685855	      2.05891053	     33.03959194	     11.02122919	    -14.90806683	    -20.93942926	     -7.00370830	     -8.33626212	      7.09155978	      8.01186588	    -15.05823516	     -7.27292383	    -46.75809973	    -23.31215344	      3.54548549	     45.38669485	      8.60406494	     10.24681777	    -10.12791883
      5.25000000	    -10.70329645	    -11.42287608	      4.21076437	     -1.04962051	     -0.03619267	      2.06069596	     32.15254442	     12.15241417	    -14.85885656	    -20.80601886	     -6.30235740	     -8.49464354	      7.14176826	      9.59283164	    -16.02177584	     -6.69481557	    -49.51254294	    -25.63496609	      1.71251019	     45.16278995	      8.60979186	     10.99896706	     -9.91638273
      5.26000000	    -10.74352438	    -11.97707723	      3.97649479	     -1.03708688	     -0.03546869	      2.06226925	     31.33955086	     13.01156328	    -15.09244375	    -20.64469518	     -5.50631229	     -8.28461046	      7.45579839	     11.34951918	    -16.70291832	     -5.90133705	    -52.11313550	    -27.04512645	     -0.07804255	     44.66669799	      8.70041779	     11.57925031	     -9.73402445
